HIERARCHY
ROOT Hips
{
  OFFSET 5.84602e-005 68.8428 3.50346
  CHANNELS 6 Xposition Yposition Zposition Zrotation Xrotation Yrotation
  JOINT Spine
  {
    OFFSET 0 8.597 -4.6522
    CHANNELS 3 Zrotation Xrotation Yrotation
    JOINT Spine1
    {
      OFFSET 0 7.8454 0.4098
      CHANNELS 3 Zrotation Xrotation Yrotation
      JOINT Spine2
      {
        OFFSET 0 9.7078 -2.1609
        CHANNELS 3 Zrotation Xrotation Yrotation
        JOINT Neck
        {
          OFFSET 0 21.8761 -0.4549
          CHANNELS 3 Zrotation Xrotation Yrotation
          JOINT Head
          {
            OFFSET 0 12.3537 3.3602
            CHANNELS 3 Zrotation Xrotation Yrotation
            End Site
            {
              OFFSET 0.0001 18.9506 0.5657
            }
          }
        }
        JOINT LeftShoulder
        {
          OFFSET 2.2086 21.1115 7.2329
          CHANNELS 3 Zrotation Xrotation Yrotation
          JOINT LeftArm
          {
            OFFSET 13.1193 3.0282 -4.8998
            CHANNELS 3 Zrotation Xrotation Yrotation
            JOINT LeftForeArm
            {
              OFFSET 27.4081 -0.0973053 -0.2375
              CHANNELS 3 Zrotation Xrotation Yrotation
              JOINT LeftHand
              {
                OFFSET 22.8641 0.0662994 -0.1369
                CHANNELS 3 Zrotation Xrotation Yrotation
                JOINT LeftHandIndex1
                {
                  OFFSET 8.8614 0.775009 2.4612
                  CHANNELS 3 Zrotation Xrotation Yrotation
                  JOINT LeftHandIndex2
                  {
                    OFFSET 3.3146 -0.808304 0.5841
                    CHANNELS 3 Zrotation Xrotation Yrotation
                    JOINT LeftHandIndex3
                    {
                      OFFSET 2.2628 -0.552002 0.3989
                      CHANNELS 3 Zrotation Xrotation Yrotation
                      End Site
                      {
                        OFFSET 1.6102 -0.4807 0.2612
                      }
                    }
                  }
                }
                JOINT LeftHandMiddle1
                {
                  OFFSET 8.9937 0.895004 0.2143
                  CHANNELS 3 Zrotation Xrotation Yrotation
                  JOINT LeftHandMiddle2
                  {
                    OFFSET 4.0984 0.0113983 -0.0242
                    CHANNELS 3 Zrotation Xrotation Yrotation
                    JOINT LeftHandMiddle3
                    {
                      OFFSET 2.2716 0.00689697 -0.0138001
                      CHANNELS 3 Zrotation Xrotation Yrotation
                      End Site
                      {
                        OFFSET 2.0404 -0.1441 0.0027
                      }
                    }
                  }
                }
                JOINT LeftHandRing1
                {
                  OFFSET 8.5234 0.597198 -2.0164
                  CHANNELS 3 Zrotation Xrotation Yrotation
                  JOINT LeftHandRing2
                  {
                    OFFSET 3.7188 -0.188293 -0.2328
                    CHANNELS 3 Zrotation Xrotation Yrotation
                    JOINT LeftHandRing3
                    {
                      OFFSET 2.1191 -0.106598 -0.1332
                      CHANNELS 3 Zrotation Xrotation Yrotation
                      End Site
                      {
                        OFFSET 1.8737 -0.2304 -0.0886
                      }
                    }
                  }
                }
                JOINT LeftHandPinky1
                {
                  OFFSET 7.9094 -0.601089 -3.4825
                  CHANNELS 3 Zrotation Xrotation Yrotation
                  JOINT LeftHandPinky2
                  {
                    OFFSET 2.2874 -0.477005 -0.6314
                    CHANNELS 3 Zrotation Xrotation Yrotation
                    JOINT LeftHandPinky3
                    {
                      OFFSET 1.6774 -0.349396 -0.4633
                      CHANNELS 3 Zrotation Xrotation Yrotation
                      End Site
                      {
                        OFFSET 1.4888 -0.4091 -0.3416
                      }
                    }
                  }
                }
                JOINT LeftHandThumb1
                {
                  OFFSET 1.833 -1.3875 1.3896
                  CHANNELS 3 Zrotation Xrotation Yrotation
                  JOINT LeftHandThumb2
                  {
                    OFFSET 3.4129 -1.121 2.5732
                    CHANNELS 3 Zrotation Xrotation Yrotation
                    JOINT LeftHandThumb3
                    {
                      OFFSET 2.2474 -0.804199 1.6192
                      CHANNELS 3 Zrotation Xrotation Yrotation
                      End Site
                      {
                        OFFSET 1.6527 -0.5689 1.1317
                      }
                    }
                  }
                }
              }
            }
          }
        }
        JOINT RightShoulder
        {
          OFFSET -2.2086 21.1115 7.2329
          CHANNELS 3 Zrotation Xrotation Yrotation
          JOINT RightArm
          {
            OFFSET -13.1216 3.0287 -4.9007
            CHANNELS 3 Zrotation Xrotation Yrotation
            JOINT RightForeArm
            {
              OFFSET -27.4081 -0.0973053 -0.2375
              CHANNELS 3 Zrotation Xrotation Yrotation
              JOINT RightHand
              {
                OFFSET -22.8641 0.0664063 -0.1369
                CHANNELS 3 Zrotation Xrotation Yrotation
                JOINT RightHandIndex1
                {
                  OFFSET -8.8614 0.774994 2.4612
                  CHANNELS 3 Zrotation Xrotation Yrotation
                  JOINT RightHandIndex2
                  {
                    OFFSET -3.3146 -0.808304 0.5841
                    CHANNELS 3 Zrotation Xrotation Yrotation
                    JOINT RightHandIndex3
                    {
                      OFFSET -2.2628 -0.552002 0.3989
                      CHANNELS 3 Zrotation Xrotation Yrotation
                      End Site
                      {
                        OFFSET -1.6102 -0.4807 0.2612
                      }
                    }
                  }
                }
                JOINT RightHandMiddle1
                {
                  OFFSET -8.9937 0.894989 0.2143
                  CHANNELS 3 Zrotation Xrotation Yrotation
                  JOINT RightHandMiddle2
                  {
                    OFFSET -4.0984 0.0113983 -0.0242
                    CHANNELS 3 Zrotation Xrotation Yrotation
                    JOINT RightHandMiddle3
                    {
                      OFFSET -2.2716 0.00691223 -0.0138001
                      CHANNELS 3 Zrotation Xrotation Yrotation
                      End Site
                      {
                        OFFSET -2.0404 -0.1441 0.0027
                      }
                    }
                  }
                }
                JOINT RightHandRing1
                {
                  OFFSET -8.5234 0.597198 -2.0164
                  CHANNELS 3 Zrotation Xrotation Yrotation
                  JOINT RightHandRing2
                  {
                    OFFSET -3.7188 -0.188309 -0.2328
                    CHANNELS 3 Zrotation Xrotation Yrotation
                    JOINT RightHandRing3
                    {
                      OFFSET -2.1191 -0.106598 -0.1332
                      CHANNELS 3 Zrotation Xrotation Yrotation
                      End Site
                      {
                        OFFSET -1.8737 -0.2304 -0.0886
                      }
                    }
                  }
                }
                JOINT RightHandPinky1
                {
                  OFFSET -7.9094 -0.601105 -3.4825
                  CHANNELS 3 Zrotation Xrotation Yrotation
                  JOINT RightHandPinky2
                  {
                    OFFSET -2.2874 -0.477005 -0.6314
                    CHANNELS 3 Zrotation Xrotation Yrotation
                    JOINT RightHandPinky3
                    {
                      OFFSET -1.6774 -0.349396 -0.4633
                      CHANNELS 3 Zrotation Xrotation Yrotation
                      End Site
                      {
                        OFFSET -1.4888 -0.4091 -0.3416
                      }
                    }
                  }
                }
                JOINT RightHandThumb1
                {
                  OFFSET -1.833 -1.38751 1.3896
                  CHANNELS 3 Zrotation Xrotation Yrotation
                  JOINT RightHandThumb2
                  {
                    OFFSET -3.41299 -1.12099 2.5732
                    CHANNELS 3 Zrotation Xrotation Yrotation
                    JOINT RightHandThumb3
                    {
                      OFFSET -2.24741 -0.804108 1.6192
                      CHANNELS 3 Zrotation Xrotation Yrotation
                      End Site
                      {
                        OFFSET -1.6527 -0.5689 1.1317
                      }
                    }
                  }
                }
              }
            }
          }
        }
      }
    }
  }
  JOINT RightUpLeg
  {
    OFFSET -9.1966 3.8861 -0.7581
    CHANNELS 3 Zrotation Xrotation Yrotation
    JOINT RightLeg
    {
      OFFSET -0.7359 -41.0265 0
      CHANNELS 3 Zrotation Xrotation Yrotation
      JOINT RightFoot
      {
        OFFSET 0 -40.2855 0
        CHANNELS 3 Zrotation Xrotation Yrotation
        JOINT RightToeBase
        {
          OFFSET 0 -5.6122 11.7359
          CHANNELS 3 Zrotation Xrotation Yrotation
          End Site
          {
            OFFSET 0 0 7.8731
          }
        }
      }
    }
  }
  JOINT LeftUpLeg
  {
    OFFSET 9.1965 3.8864 -0.7581
    CHANNELS 3 Zrotation Xrotation Yrotation
    JOINT LeftLeg
    {
      OFFSET 0.7359 -41.0268 0
      CHANNELS 3 Zrotation Xrotation Yrotation
      JOINT LeftFoot
      {
        OFFSET 0 -40.2855 0
        CHANNELS 3 Zrotation Xrotation Yrotation
        JOINT LeftToeBase
        {
          OFFSET 0 -5.6122 11.7359
          CHANNELS 3 Zrotation Xrotation Yrotation
          End Site
          {
            OFFSET 0 0 7.8731
          }
        }
      }
    }
  }
}
MOTION
Frames:	5
Frame Time:	0.0333333
5.84602e-005 68.8428 3.50346 0 0 -0 0 0 -0 0 0 -0 0 0 -0 0 0 -0 0 0 -0 0 0 -0 0 0 -0 0 0 -0 0 0 -0 0 0 -0 0 0 -0 0 0 -0 0 0 -0 -0.0146107 -8.87603e-005 -2.63497e-007 2.99804e-018 -2.42657e-020 -1.42182e-022 0 0 -0 -0.0187562 -0.001176 5.858e-005 5.06224e-018 3.88251e-019 1.21329e-020 0 0 -0 -0.012269 -0.00324817 0.000675346 -1.74678e-018 3.88251e-019 -0 0 0 -0 0 0 -0 0 0 -0 0 0 -0 0 0 -0 0 0 -0 0 0 -0 0 0 -0 0 0 -0 0 0 -0 0 0 -0 0.0149955 -9.10982e-005 2.64101e-007 -9.69331e-018 1.21329e-020 -4.7394e-023 0 0 -0 0.0189956 -0.00119102 -5.96516e-005 -5.41541e-019 0 2.42657e-020 0 0 -0 0.0122698 -0.00324857 -0.000673756 -2.00796e-019 0 -1.94126e-019 0 0 -0 0 0 -0 0 0 -0 3.39842 1.33031 -0.0637918 -5.65207e-008 0.834868 -0.000436188 -3.39935 -2.16518 -0.0642563 -8.89002e-024 -1.18485e-023 -1.48106e-024 -3.39844 1.35642 0.0640283 -3.18788e-007 0.782166 -0.000588827 3.39931 -2.13858 0.0634662 1.1399e-023 0 -0 
-24.1223 15.942 6.75744 0 0 -0 -0.104224 -0.107628 -0.0798252 -0.208599 -0.21511 -0.159846 -0.208599 -0.21511 -0.159846 0.267311 0.106511 -0.000412433 -6.34837e-008 0.890024 -1.11422e-007 -23.6105 -29.7214 55.9613 -43.07 14.641 -3.61542 -29.9901 13.1357 0.138248 22.4854 0.00788065 -0.292161 3.19561e-008 -1.87593e-006 1.83441e-007 6.88181e-007 1.19529e-008 2.31433e-006 1.98785e-016 -6.36111e-015 1.98785e-016 3.19561e-008 -1.87593e-006 1.83441e-007 -0.0146131 -8.54356e-005 -7.66574e-007 0 0 -9.93923e-016 3.19561e-008 -1.87593e-006 1.83441e-007 -0.0187639 -0.00117859 5.96782e-005 2.20695e-032 6.36111e-015 -1.98785e-016 3.19561e-008 -1.87593e-006 1.83441e-007 -0.0122894 -0.00325473 0.00068109 -3.97569e-016 6.36111e-015 -1.98785e-016 3.19561e-008 -1.87593e-006 1.83441e-007 6.88181e-007 1.19529e-008 2.31433e-006 1.98785e-016 -6.36111e-015 1.98785e-016 23.6052 -29.7206 -55.9667 43.0665 14.6396 3.61257 29.9862 13.1357 -0.138335 -22.489 0.00856688 0.288724 1.98785e-016 -3.18055e-015 -3.97569e-016 -7.04068e-007 3.34083e-008 -2.30922e-006 -1.10348e-032 3.18055e-015 1.98785e-016 1.98785e-016 -3.18055e-015 -3.97569e-016 0.0150037 -9.21374e-005 1.24553e-006 -3.31043e-032 9.54166e-015 1.98785e-016 1.98785e-016 -3.18055e-015 -3.97569e-016 0.0189987 -0.00119231 -5.95153e-005 -3.97569e-016 -6.36111e-015 3.97569e-016 1.98785e-016 -3.18055e-015 -3.97569e-016 0.0122557 -0.0032444 -0.000673401 1.98785e-016 -6.36111e-015 -7.95139e-016 1.98785e-016 -3.18055e-015 -3.97569e-016 -7.04068e-007 3.34083e-008 -2.30922e-006 -1.10348e-032 3.18055e-015 1.98785e-016 -3.59834 -41.9166 -10.7823 -174.222 40.1223 171.569 -4.95927 53.9816 -8.59967 7.95139e-016 -6.36111e-015 -0 3.56045 -41.8517 10.6661 174.32 40.1768 -171.648 5.13144 53.3925 8.41352 2.05755e-007 -1.87896e-008 -5.35048e-008 
-24.1223 15.942 6.75744 0 0 -0 -0.104224 -0.107628 -0.0798252 -0.208599 -0.21511 -0.159846 -0.208599 -0.21511 -0.159846 0.409741 0.251214 -0.0138959 -5.93028e-008 1.77118 1.7457e-007 -23.6105 -29.7214 55.9613 -43.07 14.641 -3.61542 -29.9901 13.1357 0.138248 22.4854 0.00789474 -0.292158 4.41391e-032 -6.36111e-015 3.97569e-016 -3.97569e-016 -9.54166e-015 -1.98785e-016 1.98785e-016 -9.54166e-015 3.97569e-016 4.41391e-032 -6.36111e-015 3.97569e-016 -0.0146028 -8.6415e-005 -4.39851e-008 -1.98785e-016 3.18055e-015 5.96354e-016 4.41391e-032 -6.36111e-015 3.97569e-016 -0.0187526 -0.00117839 6.38658e-005 1.98785e-016 6.36111e-015 -3.97569e-016 4.41391e-032 -6.36111e-015 3.97569e-016 -0.0122462 -0.00324451 0.000674526 3.97569e-016 -6.36111e-015 -1.98785e-016 4.41391e-032 -6.36111e-015 3.97569e-016 -3.97569e-016 -9.54166e-015 -1.98785e-016 1.98785e-016 -9.54166e-015 3.97569e-016 23.6052 -29.7206 -55.9667 43.0665 14.6396 3.61257 29.9862 13.1357 -0.138335 -22.489 0.00856688 0.288724 1.98785e-016 -3.18055e-015 -3.97569e-016 -7.04068e-007 3.34083e-008 -2.30922e-006 -1.10348e-032 3.18055e-015 1.98785e-016 1.98785e-016 -3.18055e-015 -3.97569e-016 0.0150037 -9.21374e-005 1.24553e-006 -3.31043e-032 9.54166e-015 1.98785e-016 1.98785e-016 -3.18055e-015 -3.97569e-016 0.0189987 -0.00119231 -5.95153e-005 -3.97569e-016 -6.36111e-015 3.97569e-016 1.98785e-016 -3.18055e-015 -3.97569e-016 0.0122557 -0.0032444 -0.000673401 1.98785e-016 -6.36111e-015 -7.95139e-016 1.98785e-016 -3.18055e-015 -3.97569e-016 -7.04068e-007 3.34083e-008 -2.30922e-006 -1.10348e-032 3.18055e-015 1.98785e-016 -3.59833 -41.9166 -10.7823 -174.222 40.1223 171.569 -4.95926 53.9815 -8.5997 4.19883e-007 2.17629e-008 1.6481e-006 3.56044 -41.8518 10.666 174.32 40.1767 -171.648 5.13144 53.3924 8.41351 2.05755e-007 -1.87896e-008 -5.35049e-008 
-24.1223 15.942 6.75744 0 0 -0 -0.104224 -0.107628 -0.0798251 -0.208599 -0.21511 -0.159846 -0.208599 -0.21511 -0.159846 0.552234 0.395892 -0.0277414 7.11005e-008 2.65415 -1.50804e-008 -23.6105 -29.7214 55.9613 -43.0701 14.641 -3.6154 -29.9901 13.1357 0.138235 22.4854 0.00788977 -0.292163 -3.97569e-016 3.18055e-015 3.97569e-016 -1.98785e-016 0 5.96354e-016 1.98785e-016 -3.18055e-015 1.98785e-016 -3.97569e-016 3.18055e-015 3.97569e-016 -0.0146124 -8.54264e-005 1.54285e-006 -2.20695e-032 6.36111e-015 1.98785e-016 -3.97569e-016 3.18055e-015 3.97569e-016 -0.0187639 -0.00117859 5.96717e-005 -5.96354e-016 -3.18055e-015 -0 -3.97569e-016 3.18055e-015 3.97569e-016 -0.0122752 -0.00325196 0.000678188 -1.98785e-016 0 3.97569e-016 -3.97569e-016 3.18055e-015 3.97569e-016 -1.98785e-016 0 5.96354e-016 1.98785e-016 -3.18055e-015 1.98785e-016 23.6052 -29.7206 -55.9667 43.0665 14.6396 3.61258 29.9862 13.1357 -0.138332 -22.489 0.00855996 0.28873 3.74912e-007 1.13791e-006 1.17132e-006 -7.04067e-007 3.3409e-008 -2.30922e-006 -7.95139e-016 0 1.98785e-016 3.74912e-007 1.13791e-006 1.17132e-006 0.0149927 -9.30295e-005 -1.72493e-006 -8.82781e-032 6.36111e-015 7.95139e-016 3.74912e-007 1.13791e-006 1.17132e-006 0.0190134 -0.00119122 -6.15185e-005 -1.11319e-014 -3.18055e-015 7.15625e-015 3.74912e-007 1.13791e-006 1.17132e-006 0.0122748 -0.00324942 -0.000676788 1.98785e-016 -3.18055e-015 1.98785e-016 3.74912e-007 1.13791e-006 1.17132e-006 -7.04067e-007 3.3409e-008 -2.30922e-006 -7.95139e-016 0 1.98785e-016 -3.59834 -41.9166 -10.7823 -174.222 40.1223 171.569 -4.95927 53.9816 -8.59967 7.95139e-016 -6.36111e-015 -0 3.56045 -41.8517 10.6661 174.32 40.1767 -171.648 5.13145 53.3925 8.41352 -1.89228e-007 3.52655e-008 1.80656e-006 
-24.1223 15.942 6.75744 0 0 -0 -0.104224 -0.107628 -0.0798252 -0.208599 -0.21511 -0.159846 -0.208599 -0.21511 -0.159846 0.694796 0.540609 -0.0419484 -5.21382e-008 3.53883 6.21633e-008 -23.6105 -29.7214 55.9613 -43.0701 14.641 -3.6154 -29.9901 13.1357 0.138231 22.4854 0.00788903 -0.292159 6.8818e-007 1.19522e-008 2.31433e-006 -6.8818e-007 -1.19521e-008 -2.31433e-006 3.24148e-007 1.16314e-006 1.15119e-006 6.8818e-007 1.19522e-008 2.31433e-006 -0.0146028 -8.64162e-005 -4.44295e-008 3.24103e-007 1.16299e-006 1.15134e-006 6.8818e-007 1.19522e-008 2.31433e-006 -0.018744 -0.00118056 5.88097e-005 3.24101e-007 1.16295e-006 1.15137e-006 6.8818e-007 1.19522e-008 2.31433e-006 -0.0122505 -0.00324205 0.000677133 3.24149e-007 1.163e-006 1.1513e-006 6.8818e-007 1.19522e-008 2.31433e-006 -6.8818e-007 -1.19521e-008 -2.31433e-006 3.24148e-007 1.16314e-006 1.15119e-006 23.6052 -29.7206 -55.9667 43.0665 14.6396 3.61257 29.9862 13.1357 -0.138308 -22.489 0.00857114 0.288718 1.98785e-016 -3.18055e-015 -0 3.29155e-007 -1.17132e-006 1.13791e-006 3.29155e-007 -1.17132e-006 1.13791e-006 1.98785e-016 -3.18055e-015 -0 0.0150133 -9.11858e-005 -3.98158e-007 3.29107e-007 -1.17117e-006 1.13806e-006 1.98785e-016 -3.18055e-015 -0 0.0189792 -0.00119075 -5.73288e-005 3.29105e-007 -1.17112e-006 1.1381e-006 1.98785e-016 -3.18055e-015 -0 0.0122889 -0.00325228 -0.000679784 3.29154e-007 -1.17118e-006 1.13803e-006 1.98785e-016 -3.18055e-015 -0 3.29155e-007 -1.17132e-006 1.13791e-006 3.29155e-007 -1.17132e-006 1.13791e-006 -3.59834 -41.9166 -10.7823 -174.222 40.1222 171.569 -4.95925 53.9815 -8.5997 -2.02083e-007 -2.67943e-008 9.2902e-007 3.56045 -41.8517 10.6661 174.32 40.1768 -171.648 5.13144 53.3925 8.41352 -2.14019e-007 1.05517e-008 -8.23022e-007 
